<?xml version="1.0" encoding="UTF-8"?>
<svg width="1287px" height="400px" viewBox="0 0 1287 400" version="1.1" xmlns="http://www.w3.org/2000/svg" xmlns:xlink="http://www.w3.org/1999/xlink">
    <!-- Generator: Sketch 52.2 (67145) - http://www.bohemiancoding.com/sketch -->
    <title>Gadget_logo on light bg</title>
    <desc>Created with Sketch.</desc>
    <defs>
        <ellipse id="path-1" cx="197.99668" cy="197.957863" rx="197.920555" ry="197.881753"></ellipse>
    </defs>
    <g id="Gadget_logo-on-light-bg" stroke="none" stroke-width="1" fill="none" fill-rule="evenodd">
        <g id="Gadgets360-New-Copy" transform="translate(2.000000, 2.000000)">
            <g id="Gadgets" transform="translate(0.000000, 94.748466)" fill="#343434">
                <path d="M121.356623,57.0161043 C118.69888,45.5520899 112.206491,37.5425841 101.879261,32.9873466 C96.1081624,30.481966 89.6917079,29.2292945 82.6297053,29.2292945 C69.1131841,29.2292945 58.007782,34.3348799 49.3131658,44.546204 C40.6185497,54.7575281 36.2713068,70.1122441 36.2713068,90.6108129 C36.2713068,111.261223 40.979238,125.875724 50.3952415,134.454755 C59.811245,143.033785 70.5179916,147.323236 82.5158026,147.323236 C94.285807,147.323236 103.929472,143.925839 111.447088,137.130943 C118.964704,130.336047 123.596701,121.434488 125.343217,110.425997 L86.502397,110.425997 L86.502397,82.4114264 L156.438654,82.4114264 L156.438654,172.490798 L133.202504,172.490798 L129.67152,151.53681 C122.913259,159.508475 116.838509,165.126517 111.447088,168.391104 C102.182956,174.085151 90.7927996,176.932132 77.2762784,176.932132 C55.0271733,176.932132 36.8029237,169.226304 22.602983,153.814417 C7.79555807,138.32661 0.391956676,117.145073 0.391956676,90.2691718 C0.391956676,63.089588 7.87149244,41.3006955 22.8307884,24.9018405 C37.7900843,8.50298549 57.5709885,0.303680982 82.1740945,0.303680982 C103.511973,0.303680982 120.654158,5.71294437 133.601163,16.5316334 C146.548168,27.3503225 153.970753,40.8450112 155.869141,57.0161043 L121.356623,57.0161043 Z M239.9673,112.134202 C237.917041,113.424853 235.847829,114.468746 233.759603,115.265913 C231.671376,116.063079 228.804854,116.803294 225.159949,117.48658 L217.870176,118.853144 C211.03598,120.067874 206.138213,121.548304 203.176728,123.294479 C198.164984,126.255383 195.65915,130.848512 195.65915,137.074003 C195.65915,142.616209 197.196821,146.620962 200.272209,149.088382 C203.347598,151.555802 207.087366,152.789494 211.491625,152.789494 C218.477692,152.789494 224.91313,150.739668 230.798133,146.639954 C236.683135,142.54024 239.739493,135.062171 239.9673,124.205521 L239.9673,112.134202 Z M220.262133,96.9881135 C226.261039,96.2289072 230.551331,95.2799137 233.133138,94.1411043 C237.765204,92.167168 240.081203,89.0924289 240.081203,84.9167945 C240.081203,79.8301126 238.315728,76.3188364 234.784727,74.3828604 C231.253726,72.4468845 226.071205,71.478911 219.237009,71.478911 C211.567522,71.478911 206.138214,73.3768982 202.948923,77.1729294 C200.670857,79.9819926 199.15217,83.7779669 198.392815,88.5609663 L167.069573,88.5609663 C167.752992,77.7043169 170.790367,68.7837773 176.181789,61.7990798 C184.762501,50.8665098 199.49377,45.4003067 220.376036,45.4003067 C233.968492,45.4003067 246.042058,48.0954485 256.597094,53.4858129 C267.15213,58.8761773 272.429569,69.0493884 272.429569,84.0057515 L272.429569,140.945936 C272.429569,144.893808 272.505504,149.676736 272.657375,155.294862 C272.885181,159.546417 273.530623,162.431357 274.59372,163.94977 C275.656818,165.468182 277.251439,166.720854 279.377634,167.707822 L279.377634,172.490798 L244.067797,172.490798 C243.080635,169.985417 242.397226,167.631913 242.017549,165.430215 C241.637871,163.228517 241.334133,160.723174 241.106327,157.91411 C236.626132,162.77303 231.462594,166.910642 225.61556,170.327071 C218.629493,174.350864 210.732318,176.36273 201.923799,176.36273 C190.685343,176.36273 181.402366,173.155132 174.074589,166.739839 C166.746812,160.324546 163.082978,151.233188 163.082978,139.465491 C163.082978,124.205445 168.967892,113.15916 180.737897,106.326304 C187.192415,102.606193 196.684212,99.949011 209.213571,98.3546779 L220.262133,96.9881135 Z M351.288204,50.3541028 C357.135239,53.6566499 361.881137,58.230799 365.526042,64.0766871 L365.526042,4.85889571 L398.443922,4.85889571 L398.443922,172.490798 L366.892874,172.490798 L366.892874,155.294862 C362.260808,162.659163 356.983369,168.011486 351.060399,171.351994 C345.137429,174.692501 337.771795,176.36273 328.963275,176.36273 C314.459592,176.36273 302.253142,170.49795 292.343558,158.768213 C282.433973,147.038477 277.479255,131.987438 277.479255,113.614647 C277.479255,92.4327929 282.358039,75.7684656 292.115752,63.6211656 C301.873466,51.4738656 314.915194,45.4003067 331.241329,45.4003067 C338.758945,45.4003067 345.44117,47.0515556 351.288204,50.3541028 L351.288204,50.3541028 Z M359.261393,138.782209 C364.045331,131.949352 366.437263,123.104732 366.437263,112.248083 C366.437263,97.0639578 362.602577,86.2074713 354.933091,79.6782975 C350.225089,75.730425 344.757814,73.7565184 338.531102,73.7565184 C329.039163,73.7565184 322.072184,77.3437141 317.629957,84.5182132 C313.187729,91.6927123 310.966649,100.594272 310.966649,111.22316 C310.966649,122.687174 313.225697,131.854452 317.743859,138.725268 C322.262022,145.596085 329.1151,149.031442 338.303297,149.031442 C347.491494,149.031442 354.477456,145.615065 359.261393,138.782209 L359.261393,138.782209 Z M484.706232,137.244824 C489.945783,131.512816 492.565518,122.383498 492.565518,109.856595 C492.565518,98.0888982 490.078668,89.1303988 485.104892,82.9808282 C480.131116,76.8312576 473.467874,73.7565184 465.114968,73.7565184 C453.724641,73.7565184 445.865434,79.1088422 441.537109,89.8136503 C439.259044,95.5076972 438.120028,102.53025 438.120028,110.881518 C438.120028,118.093978 439.334978,124.509174 441.764915,130.127301 C446.169174,140.604347 454.066349,145.842791 465.456676,145.842791 C473.050227,145.842791 479.466682,142.976831 484.706232,137.244824 L484.706232,137.244824 Z M473.65767,48.247316 C481.554964,51.5119028 487.933451,57.5095422 492.793324,66.2404141 L492.793324,48.3611963 L524.344371,48.3611963 L524.344371,166.113497 C524.344371,182.132749 521.648701,194.203947 516.25728,202.327454 C506.993147,216.296849 489.224504,223.281442 462.950817,223.281442 C447.080295,223.281442 434.133484,220.168743 424.109996,213.943252 C414.086509,207.71776 408.5433,198.417623 407.480202,186.042561 L442.790039,186.042561 C443.701265,189.838593 445.181985,192.571694 447.232244,194.241948 C450.725278,197.202852 456.610192,198.683282 464.887163,198.683282 C476.581232,198.683282 484.402472,194.773429 488.351119,186.953604 C490.932926,181.942843 492.22381,173.51578 492.22381,161.672163 L492.22381,153.700537 C489.110454,159.014981 485.769342,163.000754 482.200373,165.657975 C475.745854,170.592816 467.355106,173.060199 457.027876,173.060199 C441.081419,173.060199 428.343428,167.461137 418.813521,156.262845 C409.283614,145.064553 404.518732,129.899636 404.518732,110.767638 C404.518732,92.3189262 409.112762,76.8123711 418.300959,64.2475077 C427.489156,51.6826442 440.511901,45.4003067 457.369585,45.4003067 C463.596297,45.4003067 469.025604,46.3493003 473.65767,48.247316 L473.65767,48.247316 Z M570.342078,78.881135 C566.203593,83.5882137 563.60284,89.9654506 562.539743,98.0130368 L612.998639,98.0130368 C612.46709,89.4340062 609.866338,82.9239102 605.196304,78.4825537 C600.52627,74.0411971 594.736274,71.8205521 587.826142,71.8205521 C580.308527,71.8205521 574.480563,74.1740562 570.342078,78.881135 L570.342078,78.881135 Z M615.732304,50.8665644 C624.009274,54.7385163 630.843368,60.8500349 636.234789,69.2013037 C641.094662,76.5656043 644.245939,85.1065465 645.688713,94.8243865 C646.524004,100.518433 646.865709,108.717738 646.713838,119.422546 L561.742424,119.422546 C562.198037,131.873529 566.108658,140.604269 573.474402,145.615031 C577.954597,148.727776 583.345938,150.284126 589.648585,150.284126 C596.330911,150.284126 601.760218,148.386139 605.936671,144.590107 C608.214737,142.54025 610.226998,139.69327 611.973514,136.04908 L645.1192,136.04908 C644.283909,143.41338 640.449223,150.89145 633.615027,158.483512 C622.984056,170.554892 608.100918,176.590491 588.965169,176.590491 C573.170583,176.590491 559.236625,171.503885 547.162879,161.330521 C535.089132,151.157158 529.05235,134.60671 529.05235,111.678681 C529.05235,90.1931441 534.500641,73.7186156 545.397387,62.2546012 C556.294133,50.7905869 570.43691,45.0586656 587.826142,45.0586656 C598.153372,45.0586656 607.455333,46.9946125 615.732304,50.8665644 L615.732304,50.8665644 Z M640.031546,72.6177147 L640.031546,49.5 L657.344756,49.5 L657.344756,14.8803681 L689.465317,14.8803681 L689.465317,49.5 L709.626095,49.5 L709.626095,72.6177147 L689.465317,72.6177147 L689.465317,138.212807 C689.465317,143.299489 690.110759,146.469127 691.401663,147.721817 C692.692567,148.974508 696.641154,149.600844 703.247544,149.600844 C704.234705,149.600844 705.278803,149.581864 706.379868,149.543903 C707.480933,149.505943 708.562998,149.449003 709.626095,149.373083 L709.626095,173.629601 L694.249231,174.199003 C678.910257,174.730447 668.431314,172.073265 662.812086,166.227377 C659.167181,162.507267 657.344756,156.775345 657.344756,149.031442 L657.344756,72.6177147 L640.031546,72.6177147 Z M739.96218,132.860429 C740.6456,138.630397 742.12632,142.730049 744.404386,145.159509 C748.428968,149.486985 755.870536,151.65069 766.729315,151.65069 C773.107898,151.65069 778.176517,150.701697 781.935325,148.803681 C785.694133,146.905665 787.573509,144.058685 787.573509,140.262653 C787.573509,136.618463 786.054821,133.847402 783.017401,131.949387 C779.97998,130.051371 768.703726,126.786833 749.188299,122.155675 C735.140229,118.663326 725.230794,114.297956 719.459695,109.059433 C713.688596,103.89683 710.803089,96.4567204 710.803089,86.7388804 C710.803089,75.274866 715.302201,65.4243127 724.300559,57.1869248 C733.298918,48.949537 745.960974,44.8309049 762.287109,44.8309049 C777.777954,44.8309049 790.402043,47.924624 800.159757,54.1121549 C809.91747,60.2996858 815.51763,70.9853535 816.960405,86.1694785 L784.498136,86.1694785 C784.042523,81.9938442 782.86554,78.6913465 780.967152,76.2618865 C777.398183,71.8584903 771.323433,69.6568252 762.74272,69.6568252 C755.680718,69.6568252 750.650065,70.7576577 747.650613,72.9593558 C744.65116,75.161054 743.151456,77.7423165 743.151456,80.7032209 C743.151456,84.4233315 744.746078,87.1184732 747.935369,88.788727 C751.124661,90.5349014 762.400915,93.5337211 781.764471,97.7852761 C794.673508,100.822101 804.355141,105.41523 810.809659,111.564801 C817.188242,117.790292 820.377486,125.572039 820.377486,134.910276 C820.377486,147.209417 815.80244,157.249769 806.652211,165.031633 C797.501981,172.813497 783.359204,176.704371 764.223455,176.704371 C744.708029,176.704371 730.299481,172.585739 720.997381,164.348351 C711.695281,156.110963 707.0443,145.615094 707.0443,132.860429 L739.96218,132.860429 Z"></path>
            </g>
            <g id="360-degrees" transform="translate(850.903409, 0.000000)">
                <mask id="mask-2" fill="white">
                    <use xlink:href="#path-1"></use>
                </mask>
                <use id="Mask" fill="#FD0000" xlink:href="#path-1"></use>
                <path d="M48.4183472,180.736235 L48.4183472,205.324677 C52.6812009,205.324677 57.1489326,205.447618 61.8216761,205.693504 C66.4944197,205.93939 70.7981979,206.840957 74.7331398,208.398233 C78.6680818,209.955509 81.9061625,212.455309 84.4474792,215.897708 C86.9887959,219.340107 88.2594351,224.339707 88.2594351,230.896658 C88.2594351,239.25677 85.5542031,245.854603 80.143658,250.690354 C74.7331128,255.526105 68.0929979,257.943945 60.223114,257.943945 C55.1404806,257.943945 50.7547257,257.042377 47.0657176,255.239216 C43.3767096,253.436054 40.3025823,251.018215 37.8432436,247.985625 C35.3839049,244.953036 33.4984401,241.346767 32.1867928,237.166711 C30.8751455,232.986654 30.1373549,228.601759 29.973399,224.011894 L-3.22750761,224.011894 C-3.39146352,234.011244 -1.95687079,242.862995 1.07631362,250.567412 C4.10949804,258.271829 8.41327623,264.787701 13.9877773,270.115224 C19.5622784,275.442746 26.3253584,279.499799 34.2772203,282.286503 C42.2290821,285.073207 51.0415803,286.466538 60.7149793,286.466538 C69.0767309,286.466538 77.1104502,285.237128 84.8163782,282.778272 C92.5223061,280.319415 99.3263745,276.713146 105.228787,271.959357 C111.1312,267.205568 115.844862,261.3044 119.369914,254.255678 C122.894966,247.206956 124.657466,239.174812 124.657466,230.159004 C124.657466,220.323578 121.952234,211.881631 116.541689,204.832909 C111.131144,197.784186 103.671262,193.19439 94.1618185,191.063381 L94.1618185,190.571612 C102.195658,188.276679 108.220948,183.932764 112.237868,177.539737 C116.254788,171.14671 118.263217,163.770251 118.263217,155.410139 C118.263217,147.705722 116.541706,140.902987 113.098632,135.001731 C109.655558,129.100476 105.187826,124.100876 99.695303,120.002781 C94.2027799,115.904687 88.0135369,112.831163 81.1273885,110.782115 C74.2412401,108.733068 67.355195,107.70856 60.4690466,107.70856 C51.6154272,107.70856 43.581708,109.142872 36.3676477,112.011538 C29.1535875,114.880204 22.9643446,118.937256 17.7997333,124.182817 C12.635122,129.428377 8.61826232,135.698367 5.74903382,142.992975 C2.87980532,150.287583 1.28125913,158.360708 0.953347302,167.212591 L34.1542539,167.212591 C33.990298,158.360708 36.1626813,151.025229 40.671469,145.205935 C45.1802566,139.386641 51.8613599,136.477038 60.7149793,136.477038 C67.1092599,136.477038 72.7656541,138.444094 77.6843315,142.378264 C82.603009,146.312435 85.0623108,151.96772 85.0623108,159.34429 C85.0623108,164.262003 83.8736482,168.196114 81.4962875,171.146742 C79.1189267,174.09737 76.0857878,176.351288 72.3967797,177.908564 C68.7077717,179.46584 64.7319004,180.408387 60.4690466,180.736235 C56.2061928,181.064082 52.1893332,181.064082 48.4183472,180.736235 L48.4183472,180.736235 Z M199.420989,194.013994 C203.847799,194.013994 207.741693,194.956541 211.10279,196.841665 C214.463886,198.726788 217.210106,201.185608 219.341533,204.218197 C221.47296,207.250787 223.071506,210.693135 224.13722,214.545343 C225.202933,218.397552 225.735782,222.372644 225.735782,226.470738 C225.735782,230.404909 225.161945,234.257059 224.014253,238.027306 C222.866562,241.797553 221.145051,245.15794 218.849668,248.108568 C216.554285,251.059195 213.808065,253.436054 210.610924,255.239216 C207.413784,257.042377 203.683843,257.943945 199.420989,257.943945 C194.99418,257.943945 191.059297,257.042377 187.616222,255.239216 C184.173148,253.436054 181.262974,251.018215 178.885614,247.985625 C176.508253,244.953036 174.704765,241.510688 173.475096,237.658479 C172.245426,233.806271 171.630601,229.91314 171.630601,225.978969 C171.630601,221.716951 172.204438,217.659899 173.352129,213.80769 C174.499821,209.955481 176.221332,206.554114 178.516715,203.603486 C180.812097,200.652858 183.722271,198.31698 187.247323,196.59578 C190.772376,194.874581 194.830224,194.013994 199.420989,194.013994 L199.420989,194.013994 Z M224.506119,155.410139 L257.707025,155.410139 C256.72329,147.705722 254.673872,140.902987 251.558709,135.001731 C248.443547,129.100476 244.426687,124.141856 239.50801,120.125724 C234.589332,116.109591 228.932938,113.036067 222.538658,110.905058 C216.144377,108.774049 209.258332,107.70856 201.880316,107.70856 C189.583622,107.70856 179.172578,110.413262 170.64687,115.822746 C162.121163,121.232231 155.153141,128.239867 149.742596,136.845865 C144.33205,145.451863 140.397167,155.08224 137.937829,165.737285 C135.47849,176.39233 134.248839,187.047215 134.248839,197.70226 C134.248839,208.685153 135.23256,219.462979 137.200031,230.036062 C139.167502,240.609145 142.692501,250.075601 147.775134,258.435713 C152.857768,266.795826 159.661836,273.55758 168.187544,278.721179 C176.713251,283.884777 187.452203,286.466538 200.40472,286.466538 C209.422295,286.466538 217.619968,284.868305 224.997984,281.671792 C232.376,278.475278 238.729197,274.049403 244.057764,268.394033 C249.386331,262.738663 253.485167,256.09985 256.354396,248.477394 C259.223624,240.854939 260.658217,232.617893 260.658217,223.766009 C260.658217,216.881211 259.59252,210.078477 257.461093,203.357602 C255.329666,196.636727 251.96862,190.653599 247.377854,185.408039 C242.459177,179.998554 236.474876,175.69562 229.424772,172.499106 C222.374667,169.302593 215.160715,167.70436 207.782699,167.70436 C199.420947,167.70436 192.043042,169.179652 185.648761,172.13028 C179.254481,175.080908 173.680063,179.998547 168.925342,186.883345 L168.433476,186.391577 C168.597432,181.637787 169.253246,176.228384 170.400938,170.163204 C171.548629,164.098025 173.352117,158.401759 175.811456,153.074237 C178.270794,147.746714 181.590852,143.238878 185.771728,139.550593 C189.952603,135.862308 195.158126,134.018194 201.38845,134.018194 C207.454819,134.018194 212.537376,136.149171 216.636274,140.411189 C220.735172,144.673207 223.358427,149.672807 224.506119,155.410139 L224.506119,155.410139 Z M305.909823,196.472838 C305.909823,193.52221 305.950811,189.956922 306.032789,185.776865 C306.114767,181.596809 306.401686,177.293875 306.893554,172.867933 C307.385421,168.441991 308.205189,164.057096 309.35288,159.713116 C310.500572,155.369136 312.099118,151.476005 314.148567,148.033606 C316.198016,144.591207 318.821271,141.804545 322.018411,139.673536 C325.215551,137.542526 329.191423,136.477038 333.946144,136.477038 C338.700866,136.477038 342.717725,137.542526 345.996844,139.673536 C349.275962,141.804545 351.981194,144.591207 354.112621,148.033606 C356.244048,151.476005 357.842594,155.369136 358.908307,159.713116 C359.974021,164.057096 360.793788,168.441991 361.367634,172.867933 C361.94148,177.293875 362.269386,181.596809 362.351364,185.776865 C362.433342,189.956922 362.474331,193.52221 362.474331,196.472838 C362.474331,201.390551 362.310377,207.332699 361.982465,214.299459 C361.654554,221.266219 360.629845,227.986993 358.908307,234.461982 C357.18677,240.936971 354.399562,246.469315 350.546598,251.059181 C346.693634,255.649046 341.160205,257.943945 333.946144,257.943945 C326.89604,257.943945 321.485576,255.649046 317.71459,251.059181 C313.943604,246.469315 311.197384,240.936971 309.475846,234.461982 C307.754309,227.986993 306.7296,221.266219 306.401688,214.299459 C306.073777,207.332699 305.909823,201.390551 305.909823,196.472838 L305.909823,196.472838 Z M270.987388,196.472838 C270.987388,213.684834 272.667911,228.068929 276.029007,239.625555 C279.390103,251.182181 283.939812,260.402754 289.678269,267.287553 C295.416726,274.172351 302.097829,279.089991 309.721779,282.040618 C317.345729,284.991246 325.420437,286.466538 333.946144,286.466538 C342.635808,286.466538 350.792492,284.991246 358.416442,282.040618 C366.040392,279.089991 372.762484,274.172351 378.582919,267.287553 C384.403354,260.402754 388.99405,251.182181 392.355147,239.625555 C395.716243,228.068929 397.396766,213.684834 397.396766,196.472838 C397.396766,179.752613 395.716243,165.696361 392.355147,154.303659 C388.99405,142.910957 384.403354,133.772344 378.582919,126.887545 C372.762484,120.002747 366.040392,115.085108 358.416442,112.13448 C350.792492,109.183852 342.635808,107.70856 333.946144,107.70856 C325.420437,107.70856 317.345729,109.183852 309.721779,112.13448 C302.097829,115.085108 295.416726,120.002747 289.678269,126.887545 C283.939812,133.772344 279.390103,142.910957 276.029007,154.303659 C272.667911,165.696361 270.987388,179.752613 270.987388,196.472838 L270.987388,196.472838 Z" id="360" fill="#FFFFFF" mask="url(#mask-2)"></path>
                <ellipse id="Oval-8" fill="#FE0000" cx="412.968851" cy="93.2327488" rx="17.1277403" ry="17.1243824"></ellipse>
            </g>
            <g id="venture-+-An-+-Imported-Layers" transform="translate(345.049242, 342.552147)">
                <path d="M361.09143,43.7300613 L372.572822,12.3294479 L367.166241,12.3294479 L358.600758,38.5067485 L358.479261,38.5067485 L349.670786,12.3294479 L343.899716,12.3294479 L355.563352,43.7300613 L361.09143,43.7300613 Z M399.119744,25.0233129 L381.077557,25.0233129 C381.158555,23.8085829 381.421794,22.6647293 381.867282,21.5917178 C382.312771,20.5187063 382.920246,19.5773047 383.689725,18.7674847 C384.459205,17.9576647 385.380542,17.319941 386.453764,16.8542945 C387.526986,16.388648 388.731811,16.1558282 390.068277,16.1558282 C391.364243,16.1558282 392.548819,16.388648 393.622041,16.8542945 C394.695263,17.319941 395.626724,17.9475421 396.416454,18.7371166 C397.206183,19.5266911 397.833907,20.4680927 398.299645,21.5613497 C398.765383,22.6546067 399.038746,23.8085829 399.119744,25.0233129 L399.119744,25.0233129 Z M404.101089,33.7693252 L398.998248,33.7693252 C398.55276,35.8343662 397.631423,37.3730011 396.234209,38.3852761 C394.836996,39.3975511 393.044945,39.903681 390.858002,39.903681 C389.157046,39.903681 387.678857,39.6202482 386.42339,39.0533742 C385.167923,38.4865002 384.135216,37.7273054 383.325237,36.7757669 C382.515258,35.8242284 381.928032,34.7309878 381.563542,33.4960123 C381.199051,32.2610368 381.037058,30.9552216 381.077557,29.5785276 L404.587074,29.5785276 C404.668072,27.6754506 404.495954,25.6711762 404.070715,23.5656442 C403.645476,21.4601122 402.876008,19.5165733 401.762287,17.7349693 C400.648566,15.9533653 399.170377,14.4855886 397.327675,13.3315951 C395.484973,12.1776016 393.166444,11.6006135 390.372017,11.6006135 C388.225573,11.6006135 386.25128,12.0055174 384.449077,12.8153374 C382.646874,13.6251574 381.087688,14.7588884 379.771473,16.2165644 C378.455257,17.6742404 377.432674,19.3950821 376.703693,21.3791411 C375.974712,23.3632001 375.610227,25.5496813 375.610227,27.9386503 C375.691225,30.3276193 376.045586,32.5343457 376.673319,34.5588957 C377.301053,36.5834457 378.242639,38.3245326 379.498106,39.7822086 C380.753573,41.2398846 382.302634,42.3736156 384.145336,43.1834356 C385.988038,43.9932556 388.164823,44.3981595 390.675758,44.3981595 C394.239664,44.3981595 397.196043,43.5073709 399.544981,41.7257669 C401.89392,39.9441629 403.412607,37.2920422 404.101089,33.7693252 L404.101089,33.7693252 Z M409.932907,12.3294479 L409.932907,43.7300613 L415.096496,43.7300613 L415.096496,25.995092 C415.096496,24.577907 415.288863,23.2720919 415.673603,22.0776074 C416.058343,20.8831229 416.635444,19.8404953 417.404924,18.9496933 C418.174404,18.0588913 419.136239,17.3705546 420.290459,16.8846626 C421.444679,16.3987706 422.811498,16.1558282 424.390956,16.1558282 C426.375404,16.1558282 427.93459,16.7226937 429.068561,17.8564417 C430.202531,18.9901897 430.769508,20.5288246 430.769508,22.4723926 L430.769508,43.7300613 L435.933097,43.7300613 L435.933097,23.0797546 C435.933097,21.3791326 435.760979,19.8303751 435.416738,18.4334356 C435.072497,17.0364961 434.475146,15.8319069 433.624669,14.8196319 C432.774191,13.8073569 431.660487,13.0177942 430.283523,12.4509202 C428.906559,11.8840462 427.18538,11.6006135 425.119934,11.6006135 C420.462556,11.6006135 417.060696,13.503662 414.914252,17.309816 L414.792756,17.309816 L414.792756,12.3294479 L409.932907,12.3294479 Z M450.877131,12.3294479 L450.877131,2.91533742 L445.713542,2.91533742 L445.713542,12.3294479 L440.367708,12.3294479 L440.367708,16.8846626 L445.713542,16.8846626 L445.713542,36.8668712 C445.713542,38.3245472 445.855286,39.4987686 446.138778,40.3895706 C446.422271,41.2803726 446.857628,41.9687092 447.444863,42.4546012 C448.032097,42.9404932 448.801566,43.274539 449.753291,43.4567485 C450.705016,43.638958 451.849094,43.7300613 453.185559,43.7300613 L457.134186,43.7300613 L457.134186,39.1748466 L454.765009,39.1748466 C453.955031,39.1748466 453.296933,39.1444788 452.790696,39.0837423 C452.284459,39.0230058 451.889601,38.8914121 451.606108,38.6889571 C451.322615,38.4865021 451.130248,38.2030693 451.029001,37.8386503 C450.927754,37.4742313 450.877131,36.9883466 450.877131,36.3809816 L450.877131,16.8846626 L457.134186,16.8846626 L457.134186,12.3294479 L450.877131,12.3294479 Z M488.844697,43.7300613 L488.844697,12.3294479 L483.681108,12.3294479 L483.681108,30.0644172 C483.681108,31.4816022 483.488741,32.7874173 483.104001,33.9819018 C482.719261,35.1763863 482.14216,36.219014 481.37268,37.109816 C480.6032,38.000618 479.641365,38.6889546 478.487145,39.1748466 C477.332925,39.6607386 475.966106,39.903681 474.386648,39.903681 C472.4022,39.903681 470.843014,39.3368155 469.709044,38.2030675 C468.575073,37.0693195 468.008097,35.5306846 468.008097,33.5871166 L468.008097,12.3294479 L462.844508,12.3294479 L462.844508,32.9797546 C462.844508,34.6803766 463.016625,36.2291341 463.360866,37.6260736 C463.705107,39.0230131 464.302458,40.2276023 465.152936,41.2398773 C466.003413,42.2521523 467.117117,43.0315924 468.494081,43.5782209 C469.871045,44.1248494 471.592225,44.3981595 473.65767,44.3981595 C475.96611,44.3981595 477.970777,43.9426426 479.671733,43.0315951 C481.372688,42.1205476 482.769881,40.6932613 483.863352,38.7496933 L483.984848,38.7496933 L483.984848,43.7300613 L488.844697,43.7300613 Z M496.43821,12.3294479 L496.43821,43.7300613 L501.601799,43.7300613 L501.601799,29.7607362 C501.601799,27.7361862 501.804291,25.9444863 502.20928,24.3855828 C502.61427,22.8266793 503.262243,21.500619 504.15322,20.407362 C505.044196,19.314105 506.218648,18.4840519 507.67661,17.9171779 C509.134572,17.3503039 510.896249,17.0668712 512.961695,17.0668712 L512.961695,11.6006135 C510.167268,11.5196315 507.858863,12.086497 506.036411,13.301227 C504.213959,14.515957 502.675022,16.3987603 501.419555,18.9496933 L501.298059,18.9496933 L501.298059,12.3294479 L496.43821,12.3294479 Z M538.658144,25.0233129 L520.615956,25.0233129 C520.696954,23.8085829 520.960193,22.6647293 521.405682,21.5917178 C521.85117,20.5187063 522.458645,19.5773047 523.228125,18.7674847 C523.997605,17.9576647 524.918942,17.319941 525.992164,16.8542945 C527.065386,16.388648 528.270211,16.1558282 529.606676,16.1558282 C530.902642,16.1558282 532.087218,16.388648 533.16044,16.8542945 C534.233662,17.319941 535.165124,17.9475421 535.954853,18.7371166 C536.744583,19.5266911 537.372307,20.4680927 537.838045,21.5613497 C538.303782,22.6546067 538.577146,23.8085829 538.658144,25.0233129 L538.658144,25.0233129 Z M543.639489,33.7693252 L538.536648,33.7693252 C538.091159,35.8343662 537.169822,37.3730011 535.772609,38.3852761 C534.375395,39.3975511 532.583344,39.903681 530.396402,39.903681 C528.695446,39.903681 527.217257,39.6202482 525.96179,39.0533742 C524.706323,38.4865002 523.673615,37.7273054 522.863636,36.7757669 C522.053658,35.8242284 521.466432,34.7309878 521.101941,33.4960123 C520.737451,32.2610368 520.575457,30.9552216 520.615956,29.5785276 L544.125473,29.5785276 C544.206471,27.6754506 544.034353,25.6711762 543.609115,23.5656442 C543.183876,21.4601122 542.414407,19.5165733 541.300687,17.7349693 C540.186966,15.9533653 538.708777,14.4855886 536.866075,13.3315951 C535.023373,12.1776016 532.704844,11.6006135 529.910417,11.6006135 C527.763973,11.6006135 525.789679,12.0055174 523.987476,12.8153374 C522.185274,13.6251574 520.626088,14.7588884 519.309872,16.2165644 C517.993657,17.6742404 516.971074,19.3950821 516.242093,21.3791411 C515.513112,23.3632001 515.148627,25.5496813 515.148627,27.9386503 C515.229625,30.3276193 515.583985,32.5343457 516.211719,34.5588957 C516.839452,36.5834457 517.781039,38.3245326 519.036506,39.7822086 C520.291973,41.2398846 521.841034,42.3736156 523.683736,43.1834356 C525.526438,43.9932556 527.703223,44.3981595 530.214157,44.3981595 C533.778064,44.3981595 536.734442,43.5073709 539.083381,41.7257669 C541.432319,39.9441629 542.951007,37.2920422 543.639489,33.7693252 L543.639489,33.7693252 Z" id="venture" fill="#343434"></path>
                <path d="M12.6402936,25.8128834 L19.9908144,5.58773006 L20.1123106,5.58773006 L27.3413352,25.8128834 L12.6402936,25.8128834 Z M16.9534091,0.364417178 L0.0654356061,43.7300613 L5.95800189,43.7300613 L10.8178504,30.6717791 L29.1637784,30.6717791 L33.9021307,43.7300613 L40.2806818,43.7300613 L23.3319602,0.364417178 L16.9534091,0.364417178 Z M43.6825758,12.3294479 L43.6825758,43.7300613 L48.8461648,43.7300613 L48.8461648,25.995092 C48.8461648,24.577907 49.0385319,23.2720919 49.4232718,22.0776074 C49.8080117,20.8831229 50.3851129,19.8404953 51.1545928,18.9496933 C51.9240727,18.0588913 52.8859081,17.3705546 54.0401278,16.8846626 C55.1943476,16.3987706 56.5611663,16.1558282 58.140625,16.1558282 C60.1250731,16.1558282 61.6842589,16.7226937 62.8182292,17.8564417 C63.9521995,18.9901897 64.5191761,20.5288246 64.5191761,22.4723926 L64.5191761,43.7300613 L69.6827652,43.7300613 L69.6827652,23.0797546 C69.6827652,21.3791326 69.5106472,19.8303751 69.1664062,18.4334356 C68.8221653,17.0364961 68.2248149,15.8319069 67.3743371,14.8196319 C66.5238594,13.8073569 65.4101552,13.0177942 64.0331913,12.4509202 C62.6562273,11.8840462 60.9350482,11.6006135 58.8696023,11.6006135 C54.2122242,11.6006135 50.8103643,13.503662 48.6639205,17.309816 L48.5424242,17.309816 L48.5424242,12.3294479 L43.6825758,12.3294479 Z" id="An" fill="#343434"></path>
                <g id="Imported-Layers" transform="translate(95.196970, 2.429448)">
                    <path d="M44.8406195,31.6629939 L44.3955927,31.6629939 C41.4541318,31.6629939 39.6859235,28.6504785 38.9505583,27.302135 L31.4493571,11.831411 C27.9153204,4.61838037 21.5897516,0.262380368 14.5216782,0.262380368 L0.249881385,0.262380368 L0.249881385,44.2766871 L14.0861706,44.2766871 L14.0861706,12.8809325 L14.5216782,12.8809325 C17.6154477,12.8809325 19.5288252,16.187411 19.9667126,17.2369325 L27.6202224,32.7100859 C30.8591611,39.9231166 37.1871097,44.2766871 44.3955927,44.2766871 L58.5246001,44.2766871 L58.5246001,0.262380368 L44.8406195,0.262380368 L44.8406195,31.6629939 L44.8406195,31.6629939 Z M214.357771,0.262380368 L197.580021,33.0040491 L179.771808,0.262380368 L62.7844828,0.262380368 L62.7844828,44.2766871 L100.311907,44.2766871 C113.260522,44.2766871 119.443302,36.6142086 119.443302,23.993227 L119.443302,19.1877791 C119.443302,17.8394356 119.443302,14.2317055 118.405699,10.6336933 L139.014964,10.6336933 L139.014964,44.2766871 L152.256297,44.2766871 L152.256297,10.6336933 L170.792737,10.6336933 L189.195906,44.2766871 L205.821347,44.2766871 L228.624808,0.262380368 L214.357771,0.262380368 L214.357771,0.262380368 Z M106.0449,27.0057423 C106.0449,31.5099387 103.696015,33.9126626 98.39377,33.9126626 L76.1757452,33.9126626 L76.1757452,10.6336933 L98.39377,10.6336933 C103.550846,10.6336933 106.0449,13.3303804 106.0449,17.3851288 L106.0449,27.0057423 L106.0449,27.0057423 Z" id="Fill-1" fill="#343434"></path>
                    <path d="M68.6392986,22.0014404 C68.6392986,26.3224892 65.1177788,29.9280245 60.5656862,29.9280245 C56.1608183,29.9280245 52.6392986,26.3224892 52.6392986,22.0014404 C52.6392986,17.6803916 56.1608183,13.9280245 60.5656862,13.9280245 C65.1177788,13.9280245 68.6392986,17.6803916 68.6392986,22.0014404" id="Fill-3" fill="#FD0000"></path>
                </g>
            </g>
        </g>
    </g>
</svg>